<?xml version="1.0" encoding="iso-8859-1"?>
<!-- Generator: Adobe Illustrator 19.0.0, SVG Export Plug-In . SVG Version: 6.00 Build 0)  -->
<svg version="1.1" id="Capa_1" xmlns="http://www.w3.org/2000/svg" xmlns:xlink="http://www.w3.org/1999/xlink" x="0px" y="0px"
	 viewBox="0 0 480 480" style="enable-background:new 0 0 480 480;" xml:space="preserve">
<circle style="fill:#97DAF7;" cx="240" cy="238.895" r="200"/>
<g>
	<path style="fill:#FFA442;" d="M232.005,95.113c-0.935,0.051-1.837,0.213-2.767,0.282L208,206.895l32,32c48-48,0-200,0-200
		l-10.762,56.5C230.167,95.326,231.07,95.164,232.005,95.113z"/>
	<path style="fill:#FFA442;" d="M73.797,247.88c10.328,2.407,22.4,4.925,35.316,7.053c0.08,0.013,0.158,0.026,0.238,0.039
		c21.572,3.542,45.487,5.987,67.596,4.997l0,0c25.678-1.151,48.897-6.918,63.052-21.073l0.001,0l-32-32L96.5,228.133
		c-0.069,0.928-0.23,1.829-0.282,2.762c0.051-0.933,0.213-1.834,0.282-2.762L40,238.895C40,238.895,53.563,243.164,73.797,247.88
		L73.797,247.88z"/>
	<path style="fill:#FFA442;" d="M229.238,95.395L240,38.895c-110.457,0-200,89.543-200,200l56.5-10.762
		C101.754,157.207,158.312,100.649,229.238,95.395z"/>
</g>
<path style="fill:#E85D25;" d="M96.5,228.133L208,206.895l21.238-111.5C158.312,100.649,101.754,157.207,96.5,228.133z"/>
<path style="fill:#F0FAFF;" d="M304,214.895c-48.601,0-88,39.399-88,88s39.399,88,88,88c18.166,0,35.041-5.51,49.058-14.942
	c9.468-6.371,17.629-14.532,24-24C386.49,337.935,392,321.06,392,302.895C392,254.293,352.601,214.895,304,214.895z"/>
<path style="fill:#383838;" d="M460,434.895l-67.114-67.114l-15.828-15.828c-6.371,9.468-14.532,17.629-24,24l15.828,15.828
	L436,458.895c6.627,6.627,17.373,6.627,24,0S466.627,441.522,460,434.895z"/>
<g>
	<path style="fill:#37AB4A;" d="M109.351,254.972c-0.08-0.013-0.158-0.025-0.238-0.039c-12.933-2.135-24.987-4.645-35.316-7.053
		l5.713,28.565c0.325,1.623,0.899,3.186,1.703,4.632l34.215,61.587c2.822,5.08,8.176,8.23,13.987,8.23H136c8.836,0,16-7.164,16-16
		v-34.873c0-3.335,1.042-6.586,2.98-9.3l21.967-30.754C154.841,260.959,130.943,258.526,109.351,254.972z"/>
	<path style="fill:#37AB4A;" d="M196.438,372.52l-14.98-9.987c-3.173-2.115-7.398-1.697-10.095,1l-4.117,4.118
		c-3.68,3.68-2.922,9.839,1.541,12.517l19.098,11.459c5.332,3.199,12.116-0.642,12.116-6.86v-5.589
		C200,376.501,198.663,374.003,196.438,372.52z"/>
	<path style="fill:#37AB4A;" d="M288,46.895v80c0,0,8,24,16,32s48,8,48,8l8-16l16-8l16,15.554l16,40.446l24,16v-32l-32-64l-48-48
		L288,46.895z"/>
</g>
<path d="M338.289,336.48l11.422,11.203c4.992-5.094,9.07-10.93,12.125-17.359l-14.453-6.859
	C345.094,328.277,342.035,332.66,338.289,336.48z"/>
<path d="M352,302.895h16c0-35.289-28.711-64-64-64v16C330.469,254.895,352,276.426,352,302.895z"/>
<path d="M403.571,367.15C431.362,331.784,448,287.26,448,238.895c0-114.695-93.309-208-208-208s-208,93.305-208,208
	s93.309,208,208,208c48.366,0,92.892-16.639,128.258-44.432l62.085,62.088c4.867,4.867,11.262,7.297,17.656,7.297
	s12.789-2.43,17.656-7.297c4.719-4.711,7.316-10.984,7.316-17.656s-2.598-12.945-7.316-17.656L403.571,367.15z M392.183,355.762
	l-5.057-5.057C395.266,336.609,400,320.31,400,302.895c0-52.938-43.066-96-96-96c-15.056,0-29.257,3.581-41.952,9.785
	c18.124-53.342-2.827-139.306-11.268-169.464c9.961,0.554,19.717,1.879,29.22,3.901v68.779c0,30.328,24.672,55,55,55h12.777
	c11.152,0,20.223-9.07,20.223-20.227c0-2.125,1.398-3.219,2-3.586c0.609-0.367,2.227-1.125,4.105-0.188l7.559,3.781
	c1.441,0.719,2.336,2.164,2.336,3.773c0,30.039,19.187,55.999,47.328,65.053c0.406,5.083,0.672,10.206,0.672,15.392
	C432,282.844,417.121,323.365,392.183,355.762z M369.208,380.786l-4.001-4.001c4.612-3.827,8.861-8.075,12.688-12.688l4,4
	C377.864,372.521,373.63,376.755,369.208,380.786z M75.797,240.223l129.542-24.677l22.803,22.803
	C195.395,260.915,123.957,251.341,75.797,240.223z M161.346,268.044l-12.874,18.03c-2.926,4.094-4.473,8.914-4.473,13.945v34.875
	c0,4.414-3.59,8-8,8h-6.586c-2.902,0-5.582-1.578-6.992-4.109l-34.215-61.586c-0.402-0.727-0.688-1.508-0.852-2.328l-3.296-16.472
	C106.536,263.144,134.354,267.551,161.346,268.044z M239.455,227.037l-22.803-22.803l24.676-129.566
	C252.458,122.82,262.047,194.269,239.455,227.037z M201.16,200.051l-95.6,18.211c8.889-58.764,55.045-104.918,113.809-113.81
	L201.16,200.051z M304,222.895c44.113,0,80,35.891,80,80s-35.887,80-80,80s-80-35.891-80-80S259.887,222.895,304,222.895z
	 M428.965,205.123C411.506,196.421,400,178.715,400,158.449c0-7.711-4.285-14.641-11.176-18.086l-7.559-3.781
	c-6.32-3.156-13.676-2.813-19.676,0.883c-6.004,3.711-9.59,10.141-9.59,17.203c0,2.328-1.895,4.227-4.223,4.227H335
	c-21.504,0-39-17.492-39-39V55.248C364.142,76.068,416.258,133.853,428.965,205.123z M230.284,47.141l-7.792,40.91
	c-70.127,8.022-125.315,63.206-133.339,133.336l-40.906,7.792C53.163,131.027,132.132,52.058,230.284,47.141z M240,430.895
	c-102.25,0-186.07-80.353-191.68-181.225c4.885,1.368,11.194,3.045,18.649,4.856l4.699,23.478c0.484,2.438,1.34,4.773,2.551,6.953
	l34.219,61.594c4.227,7.617,12.266,12.344,20.977,12.344H136c13.234,0,24-10.766,24-24V300.02c0-1.68,0.516-3.281,1.492-4.648
	l19.832-27.771c13.061-0.861,25.458-2.972,36.496-6.731c-6.226,12.713-9.82,26.94-9.82,42.025c0,52.938,43.066,96,96,96
	c17.417,0,33.717-4.735,47.815-12.876l5.056,5.057C324.474,416.015,283.952,430.895,240,430.895z M454.344,453.238
	c-3.5,3.5-9.188,3.5-12.688,0l-61.14-61.142c4.408-4.046,8.641-8.279,12.688-12.688l61.14,61.143
	c1.695,1.695,2.629,3.945,2.629,6.344S456.039,451.543,454.344,453.238z"/>
<path d="M304,366.895v-16c-26.469,0-48-21.531-48-48c0-13.008,5.117-25.18,14.41-34.289l-11.195-11.422
	C246.824,269.316,240,285.551,240,302.895C240,338.184,268.711,366.895,304,366.895z"/>
<path d="M200.875,365.863l-14.977-9.984c-6.336-4.219-14.828-3.391-20.199,2.008l-4.109,4.109
	c-3.508,3.508-5.172,8.344-4.566,13.266s3.391,9.211,7.648,11.766l19.09,11.453c2.566,1.539,5.398,2.313,8.234,2.313
	c2.699,0,5.402-0.703,7.883-2.102c5.086-2.883,8.121-8.086,8.121-13.93v-5.586C208,373.816,205.336,368.84,200.875,365.863z
	 M191.996,384.762l-19.094-11.453l4.117-4.117l14.98,9.984L191.996,384.762z"/>
<path d="M16.555,151.137C5.57,179.082,0,208.605,0,238.895c0,22.5,3.109,44.766,9.246,66.188l15.383-4.406
	C18.902,280.691,16,259.902,16,238.895c0-28.273,5.195-55.828,15.445-81.898L16.555,151.137z"/>
<path d="M306.23,8.152l-4.406,15.375C397.309,50.895,464,139.457,464,238.895h16C480,132.355,408.543,37.473,306.23,8.152z"/>
<g>
</g>
<g>
</g>
<g>
</g>
<g>
</g>
<g>
</g>
<g>
</g>
<g>
</g>
<g>
</g>
<g>
</g>
<g>
</g>
<g>
</g>
<g>
</g>
<g>
</g>
<g>
</g>
<g>
</g>
</svg>
